<svg xmlns="http://www.w3.org/2000/svg" xmlns:xlink="http://www.w3.org/1999/xlink" width="400" zoomAndPan="magnify" viewBox="0 0 300 74.999997" height="100" preserveAspectRatio="xMidYMid meet" version="1.0"><defs><g/><clipPath id="5c8e72d37d"><path d="M 2.605469 9.28125 L 297.355469 9.28125 L 297.355469 67.78125 L 2.605469 67.78125 Z M 2.605469 9.28125 " clip-rule="nonzero"/></clipPath></defs><g clip-path="url(#5c8e72d37d)"><path fill="#ff3131" d="M 268.304688 67.472656 L 31.691406 67.472656 C 15.820312 67.472656 2.953125 54.605469 2.953125 38.734375 L 2.953125 38.007812 C 2.953125 22.136719 15.820312 9.269531 31.691406 9.269531 L 268.304688 9.269531 C 284.179688 9.269531 297.042969 22.136719 297.042969 38.007812 L 297.042969 38.734375 C 297.042969 54.605469 284.179688 67.472656 268.304688 67.472656 " fill-opacity="1" fill-rule="nonzero"/></g><path fill="#ffffff" d="M 266.777344 21.148438 C 257.28125 21.148438 249.554688 28.875 249.554688 38.371094 C 249.554688 47.867188 257.28125 55.59375 266.777344 55.59375 C 276.273438 55.59375 284 47.867188 284 38.371094 C 284 28.875 276.273438 21.148438 266.777344 21.148438 " fill-opacity="1" fill-rule="nonzero"/><path fill="#ff3131" d="M 260.992188 31.640625 L 267.722656 38.371094 L 260.992188 45.105469 L 263.492188 47.609375 L 272.730469 38.371094 L 263.492188 29.136719 L 260.992188 31.640625 " fill-opacity="1" fill-rule="nonzero"/><g fill="#ffffff" fill-opacity="1"><g transform="translate(31.938099, 45.658619)"><g><path d="M 15.125 -21.015625 C 18.28125 -21.015625 20.65625 -20.410156 22.25 -19.203125 C 23.851562 -17.992188 24.65625 -16.222656 24.65625 -13.890625 C 24.65625 -12.734375 24.441406 -11.394531 24.015625 -9.875 C 23.328125 -7.4375 22.390625 -5.5 21.203125 -4.0625 C 20.023438 -2.632812 18.472656 -1.59375 16.546875 -0.9375 C 14.628906 -0.289062 12.164062 0.0195312 9.15625 0 L 0.5625 -0.03125 C 0.125 -0.03125 -0.210938 -0.101562 -0.453125 -0.25 C -0.703125 -0.394531 -0.828125 -0.597656 -0.828125 -0.859375 C -0.828125 -0.984375 -0.789062 -1.117188 -0.71875 -1.265625 C -0.65625 -1.453125 -0.566406 -1.585938 -0.453125 -1.671875 C -0.335938 -1.753906 -0.164062 -1.867188 0.0625 -2.015625 C 0.394531 -2.203125 0.660156 -2.410156 0.859375 -2.640625 C 1.066406 -2.878906 1.242188 -3.25 1.390625 -3.75 L 5.234375 -17.328125 C 5.316406 -17.597656 5.359375 -17.859375 5.359375 -18.109375 C 5.359375 -18.347656 5.320312 -18.546875 5.25 -18.703125 C 5.175781 -18.859375 5.078125 -19.039062 4.953125 -19.25 C 4.765625 -19.519531 4.671875 -19.742188 4.671875 -19.921875 C 4.671875 -19.984375 4.691406 -20.097656 4.734375 -20.265625 C 4.816406 -20.535156 5 -20.726562 5.28125 -20.84375 C 5.570312 -20.957031 6.007812 -21.015625 6.59375 -21.015625 Z M 15.9375 -10.578125 C 16.488281 -12.554688 16.765625 -14.113281 16.765625 -15.25 C 16.765625 -16.363281 16.53125 -17.128906 16.0625 -17.546875 C 15.601562 -17.972656 14.941406 -18.1875 14.078125 -18.1875 L 13.375 -18.1875 L 9.125 -2.84375 L 9.875 -2.84375 C 10.84375 -2.84375 11.65625 -3.046875 12.3125 -3.453125 C 12.976562 -3.867188 13.597656 -4.628906 14.171875 -5.734375 C 14.742188 -6.835938 15.332031 -8.453125 15.9375 -10.578125 Z M 15.9375 -10.578125 "/></g></g></g><g fill="#ffffff" fill-opacity="1"><g transform="translate(56.303522, 45.658619)"><g><path d="M 15.5 -16.703125 C 16.675781 -16.703125 17.613281 -16.34375 18.3125 -15.625 C 19.019531 -14.90625 19.375 -14.019531 19.375 -12.96875 C 19.375 -12.570312 19.332031 -12.207031 19.25 -11.875 C 19.039062 -11.007812 18.640625 -10.34375 18.046875 -9.875 C 17.460938 -9.414062 16.757812 -9.1875 15.9375 -9.1875 C 15.132812 -9.1875 14.53125 -9.375 14.125 -9.75 C 13.71875 -10.132812 13.351562 -10.640625 13.03125 -11.265625 C 12.863281 -11.617188 12.707031 -11.878906 12.5625 -12.046875 C 12.414062 -12.222656 12.25 -12.3125 12.0625 -12.3125 C 11.84375 -12.3125 11.65625 -12.222656 11.5 -12.046875 C 11.34375 -11.878906 11.203125 -11.585938 11.078125 -11.171875 L 8.640625 -3.28125 C 8.597656 -3.175781 8.578125 -3.019531 8.578125 -2.8125 C 8.578125 -2.539062 8.65625 -2.3125 8.8125 -2.125 C 8.976562 -1.945312 9.195312 -1.773438 9.46875 -1.609375 C 9.71875 -1.441406 9.882812 -1.304688 9.96875 -1.203125 C 10.050781 -1.097656 10.082031 -0.960938 10.0625 -0.796875 C 10.019531 -0.515625 9.867188 -0.3125 9.609375 -0.1875 C 9.347656 -0.0625 8.898438 0 8.265625 0 L 0.1875 0 C -0.351562 0 -0.742188 -0.0859375 -0.984375 -0.265625 C -1.234375 -0.441406 -1.328125 -0.679688 -1.265625 -0.984375 C -1.179688 -1.234375 -0.957031 -1.453125 -0.59375 -1.640625 C -0.28125 -1.804688 -0.0195312 -2.003906 0.1875 -2.234375 C 0.394531 -2.472656 0.570312 -2.84375 0.71875 -3.34375 L 3.53125 -12.46875 C 3.570312 -12.570312 3.59375 -12.71875 3.59375 -12.90625 C 3.59375 -13.132812 3.546875 -13.3125 3.453125 -13.4375 C 3.359375 -13.570312 3.207031 -13.734375 3 -13.921875 C 2.789062 -14.085938 2.644531 -14.234375 2.5625 -14.359375 C 2.476562 -14.484375 2.46875 -14.648438 2.53125 -14.859375 C 2.65625 -15.347656 3.316406 -15.773438 4.515625 -16.140625 C 5.710938 -16.515625 6.960938 -16.703125 8.265625 -16.703125 C 9.128906 -16.703125 9.84375 -16.503906 10.40625 -16.109375 C 10.976562 -15.722656 11.347656 -15.171875 11.515625 -14.453125 C 12.523438 -15.953125 13.851562 -16.703125 15.5 -16.703125 Z M 15.5 -16.703125 "/></g></g></g><g fill="#ffffff" fill-opacity="1"><g transform="translate(74.577589, 45.658619)"><g><path d="M 12.21875 -16.703125 C 15.070312 -16.703125 17.175781 -16.117188 18.53125 -14.953125 C 19.894531 -13.796875 20.578125 -12.285156 20.578125 -10.421875 C 20.578125 -9.785156 20.492188 -9.078125 20.328125 -8.296875 C 19.929688 -6.578125 19.179688 -5.066406 18.078125 -3.765625 C 16.984375 -2.472656 15.640625 -1.472656 14.046875 -0.765625 C 12.460938 -0.0664062 10.75 0.28125 8.90625 0.28125 C 5.976562 0.28125 3.8125 -0.300781 2.40625 -1.46875 C 1.007812 -2.632812 0.3125 -4.1875 0.3125 -6.125 C 0.3125 -6.78125 0.394531 -7.503906 0.5625 -8.296875 C 0.96875 -9.941406 1.734375 -11.398438 2.859375 -12.671875 C 3.984375 -13.941406 5.359375 -14.929688 6.984375 -15.640625 C 8.617188 -16.347656 10.363281 -16.703125 12.21875 -16.703125 Z M 12.125 -13.890625 C 11.675781 -13.890625 11.203125 -13.492188 10.703125 -12.703125 C 10.210938 -11.910156 9.632812 -10.421875 8.96875 -8.234375 C 8.289062 -6.046875 7.953125 -4.507812 7.953125 -3.625 C 7.953125 -3.164062 8.023438 -2.859375 8.171875 -2.703125 C 8.316406 -2.546875 8.519531 -2.46875 8.78125 -2.46875 C 9.21875 -2.425781 9.671875 -2.800781 10.140625 -3.59375 C 10.617188 -4.394531 11.21875 -5.953125 11.9375 -8.265625 C 12.582031 -10.304688 12.90625 -11.789062 12.90625 -12.71875 C 12.90625 -13.15625 12.835938 -13.457031 12.703125 -13.625 C 12.566406 -13.800781 12.375 -13.890625 12.125 -13.890625 Z M 12.125 -13.890625 "/></g></g></g><g fill="#ffffff" fill-opacity="1"><g transform="translate(95.281901, 45.658619)"><g><path d="M 16.5 -16.828125 C 18.125 -16.828125 19.398438 -16.289062 20.328125 -15.21875 C 21.253906 -14.144531 21.71875 -12.679688 21.71875 -10.828125 C 21.71875 -9.835938 21.582031 -8.796875 21.3125 -7.703125 C 20.675781 -5.085938 19.492188 -3.101562 17.765625 -1.75 C 16.046875 -0.394531 14.046875 0.28125 11.765625 0.28125 C 10.316406 0.28125 9.054688 -0.0195312 7.984375 -0.625 L 6.96875 2.75 C 6.882812 2.976562 6.84375 3.195312 6.84375 3.40625 C 6.84375 3.632812 6.894531 3.828125 7 3.984375 C 7.113281 4.148438 7.253906 4.304688 7.421875 4.453125 C 7.585938 4.617188 7.695312 4.753906 7.75 4.859375 C 7.800781 4.960938 7.804688 5.085938 7.765625 5.234375 C 7.679688 5.515625 7.476562 5.710938 7.15625 5.828125 C 6.84375 5.941406 6.363281 6 5.71875 6 L -1.515625 6 C -2.054688 6 -2.445312 5.90625 -2.6875 5.71875 C -2.9375 5.539062 -3.007812 5.316406 -2.90625 5.046875 C -2.863281 4.878906 -2.789062 4.742188 -2.6875 4.640625 C -2.582031 4.535156 -2.429688 4.441406 -2.234375 4.359375 C -1.921875 4.148438 -1.671875 3.929688 -1.484375 3.703125 C -1.296875 3.484375 -1.128906 3.132812 -0.984375 2.65625 L 3.625 -12.46875 C 3.6875 -12.65625 3.71875 -12.8125 3.71875 -12.9375 C 3.71875 -13.164062 3.664062 -13.347656 3.5625 -13.484375 C 3.457031 -13.628906 3.300781 -13.773438 3.09375 -13.921875 C 2.882812 -14.085938 2.738281 -14.234375 2.65625 -14.359375 C 2.570312 -14.484375 2.5625 -14.648438 2.625 -14.859375 C 2.75 -15.347656 3.410156 -15.773438 4.609375 -16.140625 C 5.804688 -16.515625 7.054688 -16.703125 8.359375 -16.703125 C 9.285156 -16.703125 10.046875 -16.46875 10.640625 -16 C 11.242188 -15.539062 11.585938 -14.898438 11.671875 -14.078125 C 13.109375 -15.910156 14.71875 -16.828125 16.5 -16.828125 Z M 12.84375 -7.453125 C 13.351562 -9.328125 13.609375 -10.617188 13.609375 -11.328125 C 13.609375 -11.773438 13.535156 -12.066406 13.390625 -12.203125 C 13.253906 -12.335938 13.0625 -12.40625 12.8125 -12.40625 C 12.625 -12.40625 12.378906 -12.316406 12.078125 -12.140625 C 11.785156 -11.960938 11.492188 -11.660156 11.203125 -11.234375 L 8.71875 -2.96875 C 8.96875 -2.71875 9.269531 -2.59375 9.625 -2.59375 C 10.195312 -2.59375 10.738281 -2.910156 11.25 -3.546875 C 11.769531 -4.191406 12.300781 -5.492188 12.84375 -7.453125 Z M 12.84375 -7.453125 "/></g></g></g><g fill="#ffffff" fill-opacity="1"><g transform="translate(117.090861, 45.658619)"><g/></g></g><g fill="#ffffff" fill-opacity="1"><g transform="translate(123.403141, 45.658619)"><g><path d="M 10.984375 0.1875 C 9.210938 0.1875 7.625 -0.132812 6.21875 -0.78125 C 4.8125 -1.4375 3.691406 -2.398438 2.859375 -3.671875 C 2.023438 -4.953125 1.609375 -6.492188 1.609375 -8.296875 C 1.609375 -9.554688 1.828125 -10.925781 2.265625 -12.40625 C 3.234375 -15.5625 4.695312 -17.835938 6.65625 -19.234375 C 8.613281 -20.640625 10.707031 -21.34375 12.9375 -21.34375 C 14.132812 -21.34375 15.195312 -21.160156 16.125 -20.796875 C 17.050781 -20.441406 17.90625 -19.925781 18.6875 -19.25 L 19.53125 -19.921875 C 20.101562 -20.359375 20.582031 -20.660156 20.96875 -20.828125 C 21.363281 -20.992188 21.800781 -21.078125 22.28125 -21.078125 C 22.8125 -21.078125 23.234375 -20.960938 23.546875 -20.734375 C 23.859375 -20.503906 24.015625 -20.171875 24.015625 -19.734375 C 24.015625 -19.492188 23.972656 -19.257812 23.890625 -19.03125 L 22.125 -14.109375 C 21.9375 -13.535156 21.707031 -13.132812 21.4375 -12.90625 C 21.175781 -12.675781 20.785156 -12.5625 20.265625 -12.5625 C 19.710938 -12.5625 19.265625 -12.753906 18.921875 -13.140625 C 18.578125 -13.535156 18.179688 -14.207031 17.734375 -15.15625 C 17.234375 -16.144531 16.820312 -16.796875 16.5 -17.109375 C 16.1875 -17.421875 15.726562 -17.578125 15.125 -17.578125 C 14.257812 -17.578125 13.425781 -17.046875 12.625 -15.984375 C 11.820312 -14.921875 11.097656 -13.328125 10.453125 -11.203125 C 9.898438 -9.410156 9.625 -7.914062 9.625 -6.71875 C 9.625 -5.664062 9.820312 -4.878906 10.21875 -4.359375 C 10.625 -3.847656 11.164062 -3.59375 11.84375 -3.59375 C 12.820312 -3.59375 13.632812 -3.8125 14.28125 -4.25 C 14.925781 -4.695312 15.582031 -5.300781 16.25 -6.0625 C 16.675781 -6.519531 17.019531 -6.859375 17.28125 -7.078125 C 17.539062 -7.304688 17.816406 -7.421875 18.109375 -7.421875 C 18.492188 -7.421875 18.894531 -7.226562 19.3125 -6.84375 C 19.738281 -6.46875 19.941406 -6.09375 19.921875 -5.71875 C 19.941406 -5.25 19.566406 -4.53125 18.796875 -3.5625 C 18.023438 -2.59375 16.960938 -1.722656 15.609375 -0.953125 C 14.253906 -0.191406 12.710938 0.1875 10.984375 0.1875 Z M 10.984375 0.1875 "/></g></g></g><g fill="#ffffff" fill-opacity="1"><g transform="translate(145.243662, 45.658619)"><g><path d="M 12.21875 -16.703125 C 15.070312 -16.703125 17.175781 -16.117188 18.53125 -14.953125 C 19.894531 -13.796875 20.578125 -12.285156 20.578125 -10.421875 C 20.578125 -9.785156 20.492188 -9.078125 20.328125 -8.296875 C 19.929688 -6.578125 19.179688 -5.066406 18.078125 -3.765625 C 16.984375 -2.472656 15.640625 -1.472656 14.046875 -0.765625 C 12.460938 -0.0664062 10.75 0.28125 8.90625 0.28125 C 5.976562 0.28125 3.8125 -0.300781 2.40625 -1.46875 C 1.007812 -2.632812 0.3125 -4.1875 0.3125 -6.125 C 0.3125 -6.78125 0.394531 -7.503906 0.5625 -8.296875 C 0.96875 -9.941406 1.734375 -11.398438 2.859375 -12.671875 C 3.984375 -13.941406 5.359375 -14.929688 6.984375 -15.640625 C 8.617188 -16.347656 10.363281 -16.703125 12.21875 -16.703125 Z M 12.125 -13.890625 C 11.675781 -13.890625 11.203125 -13.492188 10.703125 -12.703125 C 10.210938 -11.910156 9.632812 -10.421875 8.96875 -8.234375 C 8.289062 -6.046875 7.953125 -4.507812 7.953125 -3.625 C 7.953125 -3.164062 8.023438 -2.859375 8.171875 -2.703125 C 8.316406 -2.546875 8.519531 -2.46875 8.78125 -2.46875 C 9.21875 -2.425781 9.671875 -2.800781 10.140625 -3.59375 C 10.617188 -4.394531 11.21875 -5.953125 11.9375 -8.265625 C 12.582031 -10.304688 12.90625 -11.789062 12.90625 -12.71875 C 12.90625 -13.15625 12.835938 -13.457031 12.703125 -13.625 C 12.566406 -13.800781 12.375 -13.890625 12.125 -13.890625 Z M 12.125 -13.890625 "/></g></g></g><g fill="#ffffff" fill-opacity="1"><g transform="translate(165.947974, 45.658619)"><g><path d="M 18.75 -4.359375 C 18.707031 -4.191406 18.6875 -4.066406 18.6875 -3.984375 C 18.6875 -3.828125 18.722656 -3.707031 18.796875 -3.625 C 18.867188 -3.539062 18.96875 -3.5 19.09375 -3.5 C 19.34375 -3.5 19.554688 -3.609375 19.734375 -3.828125 C 19.921875 -4.054688 20.046875 -4.171875 20.109375 -4.171875 C 20.210938 -4.171875 20.300781 -4.097656 20.375 -3.953125 C 20.445312 -3.816406 20.484375 -3.65625 20.484375 -3.46875 C 20.503906 -2.882812 20.289062 -2.300781 19.84375 -1.71875 C 19.40625 -1.144531 18.785156 -0.664062 17.984375 -0.28125 C 17.191406 0.09375 16.300781 0.28125 15.3125 0.28125 C 14.070312 0.28125 13.082031 0.03125 12.34375 -0.46875 C 11.601562 -0.976562 11.128906 -1.644531 10.921875 -2.46875 C 10.160156 -1.625 9.320312 -0.984375 8.40625 -0.546875 C 7.488281 -0.117188 6.5625 0.09375 5.625 0.09375 C 4.144531 0.09375 2.90625 -0.265625 1.90625 -0.984375 C 0.90625 -1.710938 0.40625 -2.734375 0.40625 -4.046875 C 0.40625 -4.628906 0.507812 -5.238281 0.71875 -5.875 L 2.75 -12.46875 C 2.8125 -12.65625 2.84375 -12.8125 2.84375 -12.9375 C 2.84375 -13.164062 2.789062 -13.347656 2.6875 -13.484375 C 2.582031 -13.628906 2.421875 -13.773438 2.203125 -13.921875 C 1.992188 -14.085938 1.847656 -14.234375 1.765625 -14.359375 C 1.679688 -14.484375 1.671875 -14.648438 1.734375 -14.859375 C 1.859375 -15.347656 2.519531 -15.773438 3.71875 -16.140625 C 4.925781 -16.515625 6.179688 -16.703125 7.484375 -16.703125 C 8.703125 -16.703125 9.59375 -16.46875 10.15625 -16 C 10.726562 -15.539062 11.015625 -14.910156 11.015625 -14.109375 C 11.015625 -13.617188 10.941406 -13.15625 10.796875 -12.71875 L 8.8125 -6.15625 C 8.726562 -5.925781 8.6875 -5.703125 8.6875 -5.484375 C 8.6875 -5.191406 8.769531 -4.972656 8.9375 -4.828125 C 9.101562 -4.679688 9.320312 -4.609375 9.59375 -4.609375 C 9.988281 -4.609375 10.3125 -4.722656 10.5625 -4.953125 C 10.820312 -5.179688 11.078125 -5.570312 11.328125 -6.125 L 13.25 -12.46875 C 13.3125 -12.65625 13.34375 -12.8125 13.34375 -12.9375 C 13.34375 -13.164062 13.289062 -13.347656 13.1875 -13.484375 C 13.082031 -13.628906 12.9375 -13.773438 12.75 -13.921875 C 12.539062 -14.085938 12.394531 -14.234375 12.3125 -14.359375 C 12.226562 -14.484375 12.21875 -14.648438 12.28125 -14.859375 C 12.382812 -15.347656 13.035156 -15.773438 14.234375 -16.140625 C 15.429688 -16.515625 16.679688 -16.703125 17.984375 -16.703125 C 19.210938 -16.703125 20.113281 -16.46875 20.6875 -16 C 21.269531 -15.539062 21.5625 -14.921875 21.5625 -14.140625 C 21.5625 -13.742188 21.476562 -13.269531 21.3125 -12.71875 Z M 18.75 -4.359375 "/></g></g></g><g fill="#ffffff" fill-opacity="1"><g transform="translate(187.599106, 45.658619)"><g><path d="M 15.5 -16.703125 C 16.675781 -16.703125 17.613281 -16.34375 18.3125 -15.625 C 19.019531 -14.90625 19.375 -14.019531 19.375 -12.96875 C 19.375 -12.570312 19.332031 -12.207031 19.25 -11.875 C 19.039062 -11.007812 18.640625 -10.34375 18.046875 -9.875 C 17.460938 -9.414062 16.757812 -9.1875 15.9375 -9.1875 C 15.132812 -9.1875 14.53125 -9.375 14.125 -9.75 C 13.71875 -10.132812 13.351562 -10.640625 13.03125 -11.265625 C 12.863281 -11.617188 12.707031 -11.878906 12.5625 -12.046875 C 12.414062 -12.222656 12.25 -12.3125 12.0625 -12.3125 C 11.84375 -12.3125 11.65625 -12.222656 11.5 -12.046875 C 11.34375 -11.878906 11.203125 -11.585938 11.078125 -11.171875 L 8.640625 -3.28125 C 8.597656 -3.175781 8.578125 -3.019531 8.578125 -2.8125 C 8.578125 -2.539062 8.65625 -2.3125 8.8125 -2.125 C 8.976562 -1.945312 9.195312 -1.773438 9.46875 -1.609375 C 9.71875 -1.441406 9.882812 -1.304688 9.96875 -1.203125 C 10.050781 -1.097656 10.082031 -0.960938 10.0625 -0.796875 C 10.019531 -0.515625 9.867188 -0.3125 9.609375 -0.1875 C 9.347656 -0.0625 8.898438 0 8.265625 0 L 0.1875 0 C -0.351562 0 -0.742188 -0.0859375 -0.984375 -0.265625 C -1.234375 -0.441406 -1.328125 -0.679688 -1.265625 -0.984375 C -1.179688 -1.234375 -0.957031 -1.453125 -0.59375 -1.640625 C -0.28125 -1.804688 -0.0195312 -2.003906 0.1875 -2.234375 C 0.394531 -2.472656 0.570312 -2.84375 0.71875 -3.34375 L 3.53125 -12.46875 C 3.570312 -12.570312 3.59375 -12.71875 3.59375 -12.90625 C 3.59375 -13.132812 3.546875 -13.3125 3.453125 -13.4375 C 3.359375 -13.570312 3.207031 -13.734375 3 -13.921875 C 2.789062 -14.085938 2.644531 -14.234375 2.5625 -14.359375 C 2.476562 -14.484375 2.46875 -14.648438 2.53125 -14.859375 C 2.65625 -15.347656 3.316406 -15.773438 4.515625 -16.140625 C 5.710938 -16.515625 6.960938 -16.703125 8.265625 -16.703125 C 9.128906 -16.703125 9.84375 -16.503906 10.40625 -16.109375 C 10.976562 -15.722656 11.347656 -15.171875 11.515625 -14.453125 C 12.523438 -15.953125 13.851562 -16.703125 15.5 -16.703125 Z M 15.5 -16.703125 "/></g></g></g><g fill="#ffffff" fill-opacity="1"><g transform="translate(205.873173, 45.658619)"><g><path d="M 10.390625 -16.984375 C 12.128906 -16.984375 13.632812 -16.820312 14.90625 -16.5 C 16.1875 -16.1875 17.164062 -15.742188 17.84375 -15.171875 C 18.53125 -14.609375 18.875 -13.96875 18.875 -13.25 C 18.875 -12.519531 18.582031 -11.921875 18 -11.453125 C 17.425781 -10.992188 16.625 -10.765625 15.59375 -10.765625 C 14.539062 -10.765625 13.648438 -11.023438 12.921875 -11.546875 C 12.203125 -12.078125 11.84375 -12.742188 11.84375 -13.546875 C 11.84375 -13.816406 11.882812 -14.078125 11.96875 -14.328125 C 11.582031 -14.429688 11.242188 -14.484375 10.953125 -14.484375 C 10.421875 -14.484375 9.984375 -14.359375 9.640625 -14.109375 C 9.296875 -13.859375 9.132812 -13.5 9.15625 -13.03125 C 9.15625 -12.488281 9.425781 -12.023438 9.96875 -11.640625 C 10.519531 -11.265625 11.40625 -10.789062 12.625 -10.21875 C 13.675781 -9.757812 14.539062 -9.332031 15.21875 -8.9375 C 15.90625 -8.550781 16.484375 -8.0625 16.953125 -7.46875 C 17.429688 -6.882812 17.671875 -6.191406 17.671875 -5.390625 C 17.671875 -5.222656 17.628906 -4.910156 17.546875 -4.453125 C 17.210938 -3.035156 16.273438 -1.914062 14.734375 -1.09375 C 13.203125 -0.28125 11.1875 0.125 8.6875 0.125 C 5.863281 0.125 3.625 -0.25 1.96875 -1 C 0.320312 -1.757812 -0.5 -2.804688 -0.5 -4.140625 C -0.5 -5.035156 -0.226562 -5.710938 0.3125 -6.171875 C 0.863281 -6.640625 1.59375 -6.875 2.5 -6.875 C 3.550781 -6.875 4.445312 -6.546875 5.1875 -5.890625 C 5.9375 -5.242188 6.3125 -4.414062 6.3125 -3.40625 C 6.3125 -3.132812 6.28125 -2.851562 6.21875 -2.5625 C 6.71875 -2.4375 7.203125 -2.375 7.671875 -2.375 C 8.210938 -2.375 8.660156 -2.519531 9.015625 -2.8125 C 9.378906 -3.101562 9.5625 -3.515625 9.5625 -4.046875 C 9.539062 -4.523438 9.296875 -4.9375 8.828125 -5.28125 C 8.367188 -5.632812 7.632812 -6.050781 6.625 -6.53125 C 5.675781 -6.976562 4.894531 -7.394531 4.28125 -7.78125 C 3.675781 -8.164062 3.15625 -8.648438 2.71875 -9.234375 C 2.289062 -9.828125 2.078125 -10.523438 2.078125 -11.328125 C 2.078125 -13.054688 2.796875 -14.429688 4.234375 -15.453125 C 5.679688 -16.472656 7.734375 -16.984375 10.390625 -16.984375 Z M 10.390625 -16.984375 "/></g></g></g><g fill="#ffffff" fill-opacity="1"><g transform="translate(224.589114, 45.658619)"><g><path d="M 10.703125 -16.859375 C 13.367188 -16.859375 15.300781 -16.429688 16.5 -15.578125 C 17.707031 -14.722656 18.3125 -13.632812 18.3125 -12.3125 C 18.3125 -11.90625 18.269531 -11.535156 18.1875 -11.203125 C 17.863281 -9.816406 16.976562 -8.820312 15.53125 -8.21875 C 14.09375 -7.625 12.398438 -7.328125 10.453125 -7.328125 C 9.460938 -7.328125 8.535156 -7.390625 7.671875 -7.515625 C 7.648438 -6.421875 7.941406 -5.648438 8.546875 -5.203125 C 9.160156 -4.765625 10.015625 -4.546875 11.109375 -4.546875 C 11.617188 -4.546875 12.101562 -4.601562 12.5625 -4.71875 C 13.019531 -4.832031 13.609375 -5.003906 14.328125 -5.234375 C 14.921875 -5.453125 15.320312 -5.5625 15.53125 -5.5625 C 15.757812 -5.5625 15.875 -5.421875 15.875 -5.140625 C 15.894531 -4.410156 15.617188 -3.640625 15.046875 -2.828125 C 14.484375 -2.015625 13.644531 -1.320312 12.53125 -0.75 C 11.414062 -0.1875 10.066406 0.09375 8.484375 0.09375 C 6.148438 0.09375 4.234375 -0.492188 2.734375 -1.671875 C 1.242188 -2.847656 0.5 -4.5625 0.5 -6.8125 C 0.5 -7.445312 0.582031 -8.1875 0.75 -9.03125 C 1.28125 -11.613281 2.429688 -13.5625 4.203125 -14.875 C 5.984375 -16.195312 8.148438 -16.859375 10.703125 -16.859375 Z M 7.890625 -9.40625 C 7.972656 -9.382812 8.085938 -9.375 8.234375 -9.375 C 9.117188 -9.375 9.789062 -9.785156 10.25 -10.609375 C 10.71875 -11.429688 10.941406 -12.34375 10.921875 -13.34375 C 10.898438 -13.9375 10.734375 -14.234375 10.421875 -14.234375 C 10.179688 -14.234375 9.90625 -14.046875 9.59375 -13.671875 C 9.28125 -13.304688 8.96875 -12.753906 8.65625 -12.015625 C 8.351562 -11.285156 8.097656 -10.414062 7.890625 -9.40625 Z M 7.890625 -9.40625 "/></g></g></g></svg>